<?xml version="1.0" encoding="UTF-8"?>
<svg width="1000px" height="1000px" viewBox="0 0 1000 1000" version="1.1" xmlns="http://www.w3.org/2000/svg" xmlns:xlink="http://www.w3.org/1999/xlink">
    <!-- Generator: Sketch 52.5 (67469) - http://www.bohemiancoding.com/sketch -->
    <title>circle_light_bkw</title>
    <desc>Created with Sketch.</desc>
    <g id="circle_light_bkw" stroke="none" stroke-width="1" fill="none" fill-rule="evenodd">
        <rect id="Rectangle" fill="#000000" x="0" y="0" width="1000" height="1000" rx="500"></rect>
        <path d="M308.325322,265.267637 C320.175605,263.42007 342.394553,258.431713 374.982833,250.302418 C403.127256,243.651176 425.716519,239.401835 442.751302,237.554267 C449.417086,237.184754 455.897613,237 462.193076,237 C511.075495,237 535.33118,254.366871 534.960858,289.101135 C534.960858,338.246424 504.594963,387.390975 443.86226,436.536263 C482.00536,433.949669 504.03915,444.665398 509.964292,468.683772 C511.075256,473.85696 511.63073,479.214825 511.63073,484.757526 C511.63073,512.471035 498.299361,540.553636 471.636223,569.006171 C451.268549,590.807464 426.087074,610.021875 396.091044,626.64998 C360.169873,646.603706 318.879661,656.58042 272.21917,656.58042 C264.812743,656.58042 257.406427,656.395666 250,656.026152 C264.442533,580.275896 280.366112,478.476469 297.771216,350.624816 C302.955715,314.412499 306.473715,285.96039 308.325322,265.267637 Z M367.771413,495.333827 C364.828714,509.408806 361.702144,528.483819 358.391608,552.559441 C410.25667,536.632491 436.188811,518.483449 436.188811,498.11177 C436.188811,490.703886 429.751755,487 416.877449,487 C405.474492,487 389.105977,489.777915 367.771413,495.333827 Z M397.333522,347.496897 C394.351504,359.820903 391.555905,372.144723 388.946639,384.468728 L381.118881,421.440559 C408.329794,404.635098 427.71262,385.215744 439.267939,363.181917 C441.877205,358.327006 443.181818,354.40579 443.181818,351.418152 C443.181818,345.069422 438.336112,341.895105 428.644554,341.895105 C421.189509,341.895105 410.752603,343.76235 397.333522,347.496897 Z M747.224195,459.00911 C735.3807,463.442132 721.316761,468.798621 705.031956,475.078737 L663.394878,491.148364 C663.394878,473.785692 658.58353,465.104486 648.960691,465.104486 C635.26665,465.104486 621.572815,472.862159 607.878774,488.377739 C598.255935,499.829714 594.184794,510.912105 595.665231,521.625243 C596.775559,528.644196 603.807528,532.15362 616.761351,532.15362 C623.793426,532.15362 633.046017,531.045381 644.519403,528.828869 C660.434099,525.504102 674.498038,523.841744 686.711642,523.841744 C717.800815,523.841744 735.935894,534.554721 741.117423,555.980998 C742.59786,562.630532 743.338068,569.64938 743.338068,577.037751 C743.338068,600.680539 734.45558,626.170037 716.690338,653.507011 C693.743567,689.340612 661.544548,719.447773 620.092317,743.829399 C598.255874,756.759048 576.789861,763.223776 555.693636,763.223776 C536.447958,763.223776 517.572671,757.867287 499.06721,747.154149 C508.319941,724.989035 523.124087,692.295983 543.480094,649.074011 C555.323588,657.201219 567.907113,661.264762 581.231044,661.264762 C587.152792,661.264762 593.259502,660.34123 599.551358,658.494137 C611.024744,655.538788 621.942802,651.290539 632.30586,645.74926 C647.110228,637.622052 654.512301,629.310259 654.512301,620.813632 C654.512301,611.578168 646.925176,606.960505 631.750699,606.960505 C621.387641,606.960505 606.305917,609.08463 586.505074,613.332943 C566.704231,617.581257 551.622507,619.705382 541.259449,619.705382 C527.565409,619.705382 517.017454,617.11949 509.61527,611.947631 C495.181011,602.342748 489.259352,587.38152 491.850117,567.063499 C496.661537,526.058039 523.123948,478.588465 571.238146,424.653355 C620.46267,369.24057 662.839539,340.241648 698.370023,337.655718 C732.79018,335.439207 750,361.298118 750,415.233229 C750,428.162878 749.074741,442.754693 747.224195,459.00911 Z" id="BS" fill="#FFFFFF"></path>
    </g>
</svg>